<svg xmlns="http://www.w3.org/2000/svg" xmlns:xlink="http://www.w3.org/1999/xlink" contentStyleType="text/css" data-diagram-type="SEQUENCE" height="852px" preserveAspectRatio="none" style="width:837px;height:852px;background:#FFFFFF;" version="1.1" viewBox="0 0 837 852" width="837px" zoomAndPan="magnify"><title>Reservas de Espacios (Autogeneradas)</title><defs/><g><text fill="#000000" font-family="sans-serif" font-size="14" font-weight="bold" lengthAdjust="spacing" textLength="307.5078" x="265.9856" y="27.9951">Reservas de Espacios (Autogeneradas)</text><rect fill="none" height="502.5391" style="stroke:#000000;stroke-width:1.5;" width="820.479" x="10" y="252.125"/><rect fill="none" height="340.0703" style="stroke:#000000;stroke-width:1.5;" width="800.479" x="20" y="305.3906"/><rect fill="none" height="177.6016" style="stroke:#000000;stroke-width:1.5;" width="780.479" x="30" y="460.8594"/><g><title>Vecino</title><rect fill="#000000" fill-opacity="0.00000" height="653.0703" width="8" x="62.6079" y="118.5938"/><line style="stroke:#181818;stroke-width:0.5;stroke-dasharray:5.0,5.0;" x1="66" x2="66" y1="118.5938" y2="771.6641"/></g><g><title>Frontend (Web/App)</title><rect fill="#000000" fill-opacity="0.00000" height="653.0703" width="8" x="192.4551" y="118.5938"/><line style="stroke:#181818;stroke-width:0.5;stroke-dasharray:5.0,5.0;" x1="195.5083" x2="195.5083" y1="118.5938" y2="771.6641"/></g><g><title>Backend (API)</title><rect fill="#000000" fill-opacity="0.00000" height="653.0703" width="8" x="336.3438" y="118.5938"/><line style="stroke:#181818;stroke-width:0.5;stroke-dasharray:5.0,5.0;" x1="339.4019" x2="339.4019" y1="118.5938" y2="771.6641"/></g><g><title>Base de Datos</title><rect fill="#000000" fill-opacity="0.00000" height="653.0703" width="8" x="565.1255" y="118.5938"/><line style="stroke:#181818;stroke-width:0.5;stroke-dasharray:5.0,5.0;" x1="568.5259" x2="568.5259" y1="118.5938" y2="771.6641"/></g><g><title>M&#243;dulo Notificaciones</title><rect fill="#000000" fill-opacity="0.00000" height="653.0703" width="8" x="712.6021" y="118.5938"/><line style="stroke:#181818;stroke-width:0.5;stroke-dasharray:5.0,5.0;" x1="715.7251" x2="715.7251" y1="118.5938" y2="771.6641"/></g><g class="participant participant-head" data-participant="Vecino"><text fill="#000000" font-family="sans-serif" font-size="14" lengthAdjust="spacing" textLength="47.2158" x="40" y="115.292">Vecino</text><ellipse cx="66.6079" cy="50.7969" fill="#E2E2F0" rx="8" ry="8" style="stroke:#181818;stroke-width:0.5;"/><path d="M66.6079,58.7969 L66.6079,85.7969 M53.6079,66.7969 L79.6079,66.7969 M66.6079,85.7969 L53.6079,100.7969 M66.6079,85.7969 L79.6079,100.7969" fill="none" style="stroke:#181818;stroke-width:0.5;"/></g><g class="participant participant-tail" data-participant="Vecino"><text fill="#000000" font-family="sans-serif" font-size="14" lengthAdjust="spacing" textLength="47.2158" x="40" y="783.6592">Vecino</text><ellipse cx="66.6079" cy="795.4609" fill="#E2E2F0" rx="8" ry="8" style="stroke:#181818;stroke-width:0.5;"/><path d="M66.6079,803.4609 L66.6079,830.4609 M53.6079,811.4609 L79.6079,811.4609 M66.6079,830.4609 L53.6079,845.4609 M66.6079,830.4609 L79.6079,845.4609" fill="none" style="stroke:#181818;stroke-width:0.5;"/></g><g class="participant participant-head" data-participant="FE"><rect fill="#E2E2F0" height="30.2969" rx="2.5" ry="2.5" style="stroke:#181818;stroke-width:0.5;" width="155.8936" x="118.5083" y="87.2969"/><text fill="#000000" font-family="sans-serif" font-size="14" lengthAdjust="spacing" textLength="141.8936" x="125.5083" y="107.292">Frontend (Web/App)</text></g><g class="participant participant-tail" data-participant="FE"><rect fill="#E2E2F0" height="30.2969" rx="2.5" ry="2.5" style="stroke:#181818;stroke-width:0.5;" width="155.8936" x="118.5083" y="770.6641"/><text fill="#000000" font-family="sans-serif" font-size="14" lengthAdjust="spacing" textLength="141.8936" x="125.5083" y="790.6592">Frontend (Web/App)</text></g><g class="participant participant-head" data-participant="BE"><rect fill="#E2E2F0" height="30.2969" rx="2.5" ry="2.5" style="stroke:#181818;stroke-width:0.5;" width="111.8838" x="284.4019" y="87.2969"/><text fill="#000000" font-family="sans-serif" font-size="14" lengthAdjust="spacing" textLength="97.8838" x="291.4019" y="107.292">Backend (API)</text></g><g class="participant participant-tail" data-participant="BE"><rect fill="#E2E2F0" height="30.2969" rx="2.5" ry="2.5" style="stroke:#181818;stroke-width:0.5;" width="111.8838" x="284.4019" y="770.6641"/><text fill="#000000" font-family="sans-serif" font-size="14" lengthAdjust="spacing" textLength="97.8838" x="291.4019" y="790.6592">Backend (API)</text></g><g class="participant participant-head" data-participant="DB"><text fill="#000000" font-family="sans-serif" font-size="14" lengthAdjust="spacing" textLength="101.1992" x="515.5259" y="115.292">Base de Datos</text><path d="M551.1255,66.2969 C551.1255,56.2969 569.1255,56.2969 569.1255,56.2969 C569.1255,56.2969 587.1255,56.2969 587.1255,66.2969 L587.1255,92.2969 C587.1255,102.2969 569.1255,102.2969 569.1255,102.2969 C569.1255,102.2969 551.1255,102.2969 551.1255,92.2969 L551.1255,66.2969" fill="#E2E2F0" style="stroke:#181818;stroke-width:1.5;"/><path d="M551.1255,66.2969 C551.1255,76.2969 569.1255,76.2969 569.1255,76.2969 C569.1255,76.2969 587.1255,76.2969 587.1255,66.2969" fill="none" style="stroke:#181818;stroke-width:1.5;"/></g><g class="participant participant-tail" data-participant="DB"><text fill="#000000" font-family="sans-serif" font-size="14" lengthAdjust="spacing" textLength="101.1992" x="515.5259" y="783.6592">Base de Datos</text><path d="M551.1255,796.9609 C551.1255,786.9609 569.1255,786.9609 569.1255,786.9609 C569.1255,786.9609 587.1255,786.9609 587.1255,796.9609 L587.1255,822.9609 C587.1255,832.9609 569.1255,832.9609 569.1255,832.9609 C569.1255,832.9609 551.1255,832.9609 551.1255,822.9609 L551.1255,796.9609" fill="#E2E2F0" style="stroke:#181818;stroke-width:1.5;"/><path d="M551.1255,796.9609 C551.1255,806.9609 569.1255,806.9609 569.1255,806.9609 C569.1255,806.9609 587.1255,806.9609 587.1255,796.9609" fill="none" style="stroke:#181818;stroke-width:1.5;"/></g><g class="participant participant-head" data-participant="NOTI"><rect fill="#E2E2F0" height="30.2969" rx="2.5" ry="2.5" style="stroke:#181818;stroke-width:0.5;" width="167.7539" x="632.7251" y="87.2969"/><text fill="#000000" font-family="sans-serif" font-size="14" lengthAdjust="spacing" textLength="153.7539" x="639.7251" y="107.292">M&#243;dulo Notificaciones</text></g><g class="participant participant-tail" data-participant="NOTI"><rect fill="#E2E2F0" height="30.2969" rx="2.5" ry="2.5" style="stroke:#181818;stroke-width:0.5;" width="167.7539" x="632.7251" y="770.6641"/><text fill="#000000" font-family="sans-serif" font-size="14" lengthAdjust="spacing" textLength="153.7539" x="639.7251" y="790.6592">M&#243;dulo Notificaciones</text></g><g class="message" data-participant-1="Vecino" data-participant-2="FE"><polygon fill="#181818" points="184.4551,145.7266,194.4551,149.7266,184.4551,153.7266,188.4551,149.7266" style="stroke:#181818;stroke-width:1;"/><line style="stroke:#181818;stroke-width:1;" x1="66.6079" x2="190.4551" y1="149.7266" y2="149.7266"/><text fill="#000000" font-family="sans-serif" font-size="13" lengthAdjust="spacing" textLength="105.8472" x="73.6079" y="144.6606">Solicitar reserva</text></g><g class="message" data-participant-1="FE" data-participant-2="BE"><polygon fill="#181818" points="328.3438,174.8594,338.3438,178.8594,328.3438,182.8594,332.3438,178.8594" style="stroke:#181818;stroke-width:1;"/><line style="stroke:#181818;stroke-width:1;" x1="196.4551" x2="334.3438" y1="178.8594" y2="178.8594"/><text fill="#000000" font-family="sans-serif" font-size="13" lengthAdjust="spacing" textLength="98.668" x="203.4551" y="173.7935">POST /reservas</text></g><g class="message" data-participant-1="BE" data-participant-2="DB"><polygon fill="#181818" points="557.1255,203.9922,567.1255,207.9922,557.1255,211.9922,561.1255,207.9922" style="stroke:#181818;stroke-width:1;"/><line style="stroke:#181818;stroke-width:1;" x1="340.3438" x2="563.1255" y1="207.9922" y2="207.9922"/><text fill="#000000" font-family="sans-serif" font-size="13" lengthAdjust="spacing" textLength="127.6704" x="347.3438" y="202.9263">Validar pertenencia</text></g><g class="message" data-participant-1="DB" data-participant-2="BE"><polygon fill="#181818" points="351.3438,233.125,341.3438,237.125,351.3438,241.125,347.3438,237.125" style="stroke:#181818;stroke-width:1;"/><line style="stroke:#181818;stroke-width:1;stroke-dasharray:2.0,2.0;" x1="345.3438" x2="568.1255" y1="237.125" y2="237.125"/><text fill="#000000" font-family="sans-serif" font-size="13" lengthAdjust="spacing" textLength="100.9912" x="357.3438" y="232.0591">OK / No inscrito</text></g><path d="M10,252.125 L74.4429,252.125 L74.4429,259.2578 L64.4429,269.2578 L10,269.2578 L10,252.125" fill="#EEEEEE" style="stroke:#000000;stroke-width:1.5;"/><rect fill="none" height="502.5391" style="stroke:#000000;stroke-width:1.5;" width="820.479" x="10" y="252.125"/><text fill="#000000" font-family="sans-serif" font-size="13" font-weight="bold" lengthAdjust="spacing" textLength="19.4429" x="25" y="265.1919">alt</text><text fill="#000000" font-family="sans-serif" font-size="11" font-weight="bold" lengthAdjust="spacing" textLength="93.1025" x="89.4429" y="264.3354">[Vecino v&#225;lido]</text><g class="message" data-participant-1="BE" data-participant-2="DB"><polygon fill="#181818" points="557.1255,286.3906,567.1255,290.3906,557.1255,294.3906,561.1255,290.3906" style="stroke:#181818;stroke-width:1;"/><line style="stroke:#181818;stroke-width:1;" x1="340.3438" x2="563.1255" y1="290.3906" y2="290.3906"/><text fill="#000000" font-family="sans-serif" font-size="13" lengthAdjust="spacing" textLength="204.7817" x="347.3438" y="285.3247">Verificar disponibilidad y reglas</text></g><path d="M20,305.3906 L84.4429,305.3906 L84.4429,312.5234 L74.4429,322.5234 L20,322.5234 L20,305.3906" fill="#EEEEEE" style="stroke:#000000;stroke-width:1.5;"/><rect fill="none" height="340.0703" style="stroke:#000000;stroke-width:1.5;" width="800.479" x="20" y="305.3906"/><text fill="#000000" font-family="sans-serif" font-size="13" font-weight="bold" lengthAdjust="spacing" textLength="19.4429" x="35" y="318.4575">alt</text><text fill="#000000" font-family="sans-serif" font-size="11" font-weight="bold" lengthAdjust="spacing" textLength="150.6753" x="99.4429" y="317.6011">[Disponible y reglas OK]</text><g class="message" data-participant-1="BE" data-participant-2="DB"><polygon fill="#181818" points="557.1255,339.6563,567.1255,343.6563,557.1255,347.6563,561.1255,343.6563" style="stroke:#181818;stroke-width:1;"/><line style="stroke:#181818;stroke-width:1;" x1="340.3438" x2="563.1255" y1="343.6563" y2="343.6563"/><text fill="#000000" font-family="sans-serif" font-size="13" lengthAdjust="spacing" textLength="202.5981" x="347.3438" y="338.5903">Registrar reserva (Confirmada)</text></g><g class="message" data-participant-1="BE" data-participant-2="NOTI"><polygon fill="#181818" points="704.6021,368.7891,714.6021,372.7891,704.6021,376.7891,708.6021,372.7891" style="stroke:#181818;stroke-width:1;"/><line style="stroke:#181818;stroke-width:1;" x1="340.3438" x2="710.6021" y1="372.7891" y2="372.7891"/><text fill="#000000" font-family="sans-serif" font-size="13" lengthAdjust="spacing" textLength="129.6572" x="347.3438" y="367.7231">Enviar confirmaci&#243;n</text></g><g class="message" data-participant-1="NOTI" data-participant-2="Vecino"><polygon fill="#181818" points="77.6079,397.9219,67.6079,401.9219,77.6079,405.9219,73.6079,401.9219" style="stroke:#181818;stroke-width:1;"/><line style="stroke:#181818;stroke-width:1;stroke-dasharray:2.0,2.0;" x1="71.6079" x2="715.6021" y1="401.9219" y2="401.9219"/><text fill="#000000" font-family="sans-serif" font-size="13" lengthAdjust="spacing" textLength="130.6602" x="83.6079" y="396.856">Reserva confirmada</text></g><g class="message" data-participant-1="BE" data-participant-2="FE"><polygon fill="#181818" points="207.4551,427.0547,197.4551,431.0547,207.4551,435.0547,203.4551,431.0547" style="stroke:#181818;stroke-width:1;"/><line style="stroke:#181818;stroke-width:1;stroke-dasharray:2.0,2.0;" x1="201.4551" x2="339.3438" y1="431.0547" y2="431.0547"/><text fill="#000000" font-family="sans-serif" font-size="13" lengthAdjust="spacing" textLength="80.6787" x="213.4551" y="425.9888">201 Created</text></g><line style="stroke:#000000;stroke-width:1;stroke-dasharray:2.0,2.0;" x1="20" x2="820.479" y1="440.0547" y2="440.0547"/><text fill="#000000" font-family="sans-serif" font-size="11" font-weight="bold" lengthAdjust="spacing" textLength="210.1118" x="25" y="450.2651">[No disponible o regla no cumple]</text><path d="M30,460.8594 L94.4429,460.8594 L94.4429,467.9922 L84.4429,477.9922 L30,477.9922 L30,460.8594" fill="#EEEEEE" style="stroke:#000000;stroke-width:1.5;"/><rect fill="none" height="177.6016" style="stroke:#000000;stroke-width:1.5;" width="780.479" x="30" y="460.8594"/><text fill="#000000" font-family="sans-serif" font-size="13" font-weight="bold" lengthAdjust="spacing" textLength="19.4429" x="45" y="473.9263">alt</text><text fill="#000000" font-family="sans-serif" font-size="11" font-weight="bold" lengthAdjust="spacing" textLength="186.5059" x="109.4429" y="473.0698">[Lista de invitados habilitada]</text><g class="message" data-participant-1="BE" data-participant-2="DB"><polygon fill="#181818" points="557.1255,495.125,567.1255,499.125,557.1255,503.125,561.1255,499.125" style="stroke:#181818;stroke-width:1;"/><line style="stroke:#181818;stroke-width:1;" x1="340.3438" x2="563.1255" y1="499.125" y2="499.125"/><text fill="#000000" font-family="sans-serif" font-size="13" lengthAdjust="spacing" textLength="194.6953" x="347.3438" y="494.0591">Registrar en lista de invitados</text></g><g class="message" data-participant-1="BE" data-participant-2="NOTI"><polygon fill="#181818" points="704.6021,524.2578,714.6021,528.2578,704.6021,532.2578,708.6021,528.2578" style="stroke:#181818;stroke-width:1;"/><line style="stroke:#181818;stroke-width:1;" x1="340.3438" x2="710.6021" y1="528.2578" y2="528.2578"/><text fill="#000000" font-family="sans-serif" font-size="13" lengthAdjust="spacing" textLength="149.8301" x="347.3438" y="523.1919">Aviso lista de invitados</text></g><g class="message" data-participant-1="NOTI" data-participant-2="Vecino"><polygon fill="#181818" points="77.6079,553.3906,67.6079,557.3906,77.6079,561.3906,73.6079,557.3906" style="stroke:#181818;stroke-width:1;"/><line style="stroke:#181818;stroke-width:1;stroke-dasharray:2.0,2.0;" x1="71.6079" x2="715.6021" y1="557.3906" y2="557.3906"/><text fill="#000000" font-family="sans-serif" font-size="13" lengthAdjust="spacing" textLength="131.3584" x="83.6079" y="552.3247">En lista de invitados</text></g><g class="message" data-participant-1="BE" data-participant-2="FE"><polygon fill="#181818" points="207.4551,582.5234,197.4551,586.5234,207.4551,590.5234,203.4551,586.5234" style="stroke:#181818;stroke-width:1;"/><line style="stroke:#181818;stroke-width:1;stroke-dasharray:2.0,2.0;" x1="201.4551" x2="339.3438" y1="586.5234" y2="586.5234"/><text fill="#000000" font-family="sans-serif" font-size="13" lengthAdjust="spacing" textLength="89.7305" x="213.4551" y="581.4575">202 Accepted</text></g><line style="stroke:#000000;stroke-width:1;stroke-dasharray:2.0,2.0;" x1="30" x2="810.479" y1="595.5234" y2="595.5234"/><text fill="#000000" font-family="sans-serif" font-size="11" font-weight="bold" lengthAdjust="spacing" textLength="140.3735" x="35" y="605.7339">[Sin lista de invitados]</text><g class="message" data-participant-1="BE" data-participant-2="FE"><polygon fill="#181818" points="207.4551,626.4609,197.4551,630.4609,207.4551,634.4609,203.4551,630.4609" style="stroke:#181818;stroke-width:1;"/><line style="stroke:#181818;stroke-width:1;stroke-dasharray:2.0,2.0;" x1="201.4551" x2="339.3438" y1="630.4609" y2="630.4609"/><text fill="#000000" font-family="sans-serif" font-size="13" lengthAdjust="spacing" textLength="78.2603" x="213.4551" y="625.395">409 Conflict</text></g><line style="stroke:#000000;stroke-width:1;stroke-dasharray:2.0,2.0;" x1="10" x2="830.479" y1="653.4609" y2="653.4609"/><text fill="#000000" font-family="sans-serif" font-size="11" font-weight="bold" lengthAdjust="spacing" textLength="112.3203" x="15" y="663.6714">[Vecino no v&#225;lido]</text><g class="message" data-participant-1="BE" data-participant-2="NOTI"><polygon fill="#181818" points="704.6021,684.3984,714.6021,688.3984,704.6021,692.3984,708.6021,688.3984" style="stroke:#181818;stroke-width:1;"/><line style="stroke:#181818;stroke-width:1;" x1="340.3438" x2="710.6021" y1="688.3984" y2="688.3984"/><text fill="#000000" font-family="sans-serif" font-size="13" lengthAdjust="spacing" textLength="137.2935" x="347.3438" y="683.3325">Inscripci&#243;n requerida</text></g><g class="message" data-participant-1="NOTI" data-participant-2="Vecino"><polygon fill="#181818" points="77.6079,713.5313,67.6079,717.5313,77.6079,721.5313,73.6079,717.5313" style="stroke:#181818;stroke-width:1;"/><line style="stroke:#181818;stroke-width:1;stroke-dasharray:2.0,2.0;" x1="71.6079" x2="715.6021" y1="717.5313" y2="717.5313"/><text fill="#000000" font-family="sans-serif" font-size="13" lengthAdjust="spacing" textLength="178.6865" x="83.6079" y="712.4653">Debe inscribirse en la Junta</text></g><g class="message" data-participant-1="BE" data-participant-2="FE"><polygon fill="#181818" points="207.4551,742.6641,197.4551,746.6641,207.4551,750.6641,203.4551,746.6641" style="stroke:#181818;stroke-width:1;"/><line style="stroke:#181818;stroke-width:1;stroke-dasharray:2.0,2.0;" x1="201.4551" x2="339.3438" y1="746.6641" y2="746.6641"/><text fill="#000000" font-family="sans-serif" font-size="13" lengthAdjust="spacing" textLength="54.0059" x="213.4551" y="741.5981">400/401</text></g><!--SRC=[ZLBBJkD04BpFLxGuaGDAG5oMmqenDbBsGH11S6xFDDdMcXdlp3ZIViv-0v-G7zkUiKt8PX5SV71LLrTL3-heFDoJPkjKYpwovXPjXAChxsmaQ-3uWUhfl6qdHu01hgfzMe7wPsRDRnOzewYKmOWr1agmV0r1YT6539V5li3txRFf6WVNBl8ZQzJiBFNKw-NTGgd8iI6ufK1-8pz5h0fjeWLPsaMt9aiU3OQ9KdqGEFaiFk42LgwHFH4z-7vSoMy1YmJUB5TtC1s0e8gCb8KWzzYmaQ6Ml3H0LZCg0Kx6oULNc8fVO1kqv-YKmYOE9S9c-qUcdG9uhKW-X_DWEBJESirfXO7VucpTo7g0f54Eg0GU4Tacu9xQBQqvHB-B1SUNpZwoVv8Q9g_OgK3XLtR3GjO3H_FssMPMnbEimVl5MFCBr-2Bt5ZgsUmKBZrX92CODN9WwSBidBlUEOYWxfxQXh94YlTDR6Ew88kZY4PE-0DJ5N5Sz4PEij0SpEuD357d6mxkRUvXuEeTvLtgCvXhJMqVUmY-uW-Edyy-GRgHlCVOZzlSddopqE3dF-zd2BR8RwtDjvD-VtNoed9dXv5AgcbucpLx4K_j8NpfR4JrhwtPz7nsgiJ7Nm00]--></g></svg>