<svg xmlns="http://www.w3.org/2000/svg" xmlns:xlink="http://www.w3.org/1999/xlink" contentStyleType="text/css" data-diagram-type="SEQUENCE" height="910px" preserveAspectRatio="none" style="width:1020px;height:910px;background:#FFFFFF;" version="1.1" viewBox="0 0 1020 910" width="1020px" zoomAndPan="magnify"><title>Inscripci&#243;n a Actividades (Autogenerada)</title><defs/><g><text fill="#000000" font-family="sans-serif" font-size="14" font-weight="bold" lengthAdjust="spacing" textLength="326.8604" x="347.7788" y="27.9951">Inscripci&#243;n a Actividades (Autogenerada)</text><rect fill="none" height="560.8047" style="stroke:#000000;stroke-width:1.5;" width="1003.418" x="10" y="252.125"/><rect fill="none" height="398.3359" style="stroke:#000000;stroke-width:1.5;" width="983.418" x="20" y="305.3906"/><rect fill="none" height="235.8672" style="stroke:#000000;stroke-width:1.5;" width="963.418" x="30" y="460.8594"/><g><title>Vecino</title><rect fill="#000000" fill-opacity="0.00000" height="711.3359" width="8" x="62.6079" y="118.5938"/><line style="stroke:#181818;stroke-width:0.5;stroke-dasharray:5.0,5.0;" x1="66" x2="66" y1="118.5938" y2="829.9297"/></g><g><title>Frontend (Web/App)</title><rect fill="#000000" fill-opacity="0.00000" height="711.3359" width="8" x="237.6377" y="118.5938"/><line style="stroke:#181818;stroke-width:0.5;stroke-dasharray:5.0,5.0;" x1="240.6909" x2="240.6909" y1="118.5938" y2="829.9297"/></g><g><title>Backend (API)</title><rect fill="#000000" fill-opacity="0.00000" height="711.3359" width="8" x="500.6523" y="118.5938"/><line style="stroke:#181818;stroke-width:0.5;stroke-dasharray:5.0,5.0;" x1="503.7104" x2="503.7104" y1="118.5938" y2="829.9297"/></g><g><title>Base de Datos</title><rect fill="#000000" fill-opacity="0.00000" height="711.3359" width="8" x="748.0645" y="118.5938"/><line style="stroke:#181818;stroke-width:0.5;stroke-dasharray:5.0,5.0;" x1="751.4648" x2="751.4648" y1="118.5938" y2="829.9297"/></g><g><title>M&#243;dulo Notificaciones</title><rect fill="#000000" fill-opacity="0.00000" height="711.3359" width="8" x="895.541" y="118.5938"/><line style="stroke:#181818;stroke-width:0.5;stroke-dasharray:5.0,5.0;" x1="898.6641" x2="898.6641" y1="118.5938" y2="829.9297"/></g><g class="participant participant-head" data-participant="Vecino"><text fill="#000000" font-family="sans-serif" font-size="14" lengthAdjust="spacing" textLength="47.2158" x="40" y="115.292">Vecino</text><ellipse cx="66.6079" cy="50.7969" fill="#E2E2F0" rx="8" ry="8" style="stroke:#181818;stroke-width:0.5;"/><path d="M66.6079,58.7969 L66.6079,85.7969 M53.6079,66.7969 L79.6079,66.7969 M66.6079,85.7969 L53.6079,100.7969 M66.6079,85.7969 L79.6079,100.7969" fill="none" style="stroke:#181818;stroke-width:0.5;"/></g><g class="participant participant-tail" data-participant="Vecino"><text fill="#000000" font-family="sans-serif" font-size="14" lengthAdjust="spacing" textLength="47.2158" x="40" y="841.9248">Vecino</text><ellipse cx="66.6079" cy="853.7266" fill="#E2E2F0" rx="8" ry="8" style="stroke:#181818;stroke-width:0.5;"/><path d="M66.6079,861.7266 L66.6079,888.7266 M53.6079,869.7266 L79.6079,869.7266 M66.6079,888.7266 L53.6079,903.7266 M66.6079,888.7266 L79.6079,903.7266" fill="none" style="stroke:#181818;stroke-width:0.5;"/></g><g class="participant participant-head" data-participant="FE"><rect fill="#E2E2F0" height="30.2969" rx="2.5" ry="2.5" style="stroke:#181818;stroke-width:0.5;" width="155.8936" x="163.6909" y="87.2969"/><text fill="#000000" font-family="sans-serif" font-size="14" lengthAdjust="spacing" textLength="141.8936" x="170.6909" y="107.292">Frontend (Web/App)</text></g><g class="participant participant-tail" data-participant="FE"><rect fill="#E2E2F0" height="30.2969" rx="2.5" ry="2.5" style="stroke:#181818;stroke-width:0.5;" width="155.8936" x="163.6909" y="828.9297"/><text fill="#000000" font-family="sans-serif" font-size="14" lengthAdjust="spacing" textLength="141.8936" x="170.6909" y="848.9248">Frontend (Web/App)</text></g><g class="participant participant-head" data-participant="BE"><rect fill="#E2E2F0" height="30.2969" rx="2.5" ry="2.5" style="stroke:#181818;stroke-width:0.5;" width="111.8838" x="448.7104" y="87.2969"/><text fill="#000000" font-family="sans-serif" font-size="14" lengthAdjust="spacing" textLength="97.8838" x="455.7104" y="107.292">Backend (API)</text></g><g class="participant participant-tail" data-participant="BE"><rect fill="#E2E2F0" height="30.2969" rx="2.5" ry="2.5" style="stroke:#181818;stroke-width:0.5;" width="111.8838" x="448.7104" y="828.9297"/><text fill="#000000" font-family="sans-serif" font-size="14" lengthAdjust="spacing" textLength="97.8838" x="455.7104" y="848.9248">Backend (API)</text></g><g class="participant participant-head" data-participant="DB"><text fill="#000000" font-family="sans-serif" font-size="14" lengthAdjust="spacing" textLength="101.1992" x="698.4648" y="115.292">Base de Datos</text><path d="M734.0645,66.2969 C734.0645,56.2969 752.0645,56.2969 752.0645,56.2969 C752.0645,56.2969 770.0645,56.2969 770.0645,66.2969 L770.0645,92.2969 C770.0645,102.2969 752.0645,102.2969 752.0645,102.2969 C752.0645,102.2969 734.0645,102.2969 734.0645,92.2969 L734.0645,66.2969" fill="#E2E2F0" style="stroke:#181818;stroke-width:1.5;"/><path d="M734.0645,66.2969 C734.0645,76.2969 752.0645,76.2969 752.0645,76.2969 C752.0645,76.2969 770.0645,76.2969 770.0645,66.2969" fill="none" style="stroke:#181818;stroke-width:1.5;"/></g><g class="participant participant-tail" data-participant="DB"><text fill="#000000" font-family="sans-serif" font-size="14" lengthAdjust="spacing" textLength="101.1992" x="698.4648" y="841.9248">Base de Datos</text><path d="M734.0645,855.2266 C734.0645,845.2266 752.0645,845.2266 752.0645,845.2266 C752.0645,845.2266 770.0645,845.2266 770.0645,855.2266 L770.0645,881.2266 C770.0645,891.2266 752.0645,891.2266 752.0645,891.2266 C752.0645,891.2266 734.0645,891.2266 734.0645,881.2266 L734.0645,855.2266" fill="#E2E2F0" style="stroke:#181818;stroke-width:1.5;"/><path d="M734.0645,855.2266 C734.0645,865.2266 752.0645,865.2266 752.0645,865.2266 C752.0645,865.2266 770.0645,865.2266 770.0645,855.2266" fill="none" style="stroke:#181818;stroke-width:1.5;"/></g><g class="participant participant-head" data-participant="NOTI"><rect fill="#E2E2F0" height="30.2969" rx="2.5" ry="2.5" style="stroke:#181818;stroke-width:0.5;" width="167.7539" x="815.6641" y="87.2969"/><text fill="#000000" font-family="sans-serif" font-size="14" lengthAdjust="spacing" textLength="153.7539" x="822.6641" y="107.292">M&#243;dulo Notificaciones</text></g><g class="participant participant-tail" data-participant="NOTI"><rect fill="#E2E2F0" height="30.2969" rx="2.5" ry="2.5" style="stroke:#181818;stroke-width:0.5;" width="167.7539" x="815.6641" y="828.9297"/><text fill="#000000" font-family="sans-serif" font-size="14" lengthAdjust="spacing" textLength="153.7539" x="822.6641" y="848.9248">M&#243;dulo Notificaciones</text></g><g class="message" data-participant-1="Vecino" data-participant-2="FE"><polygon fill="#181818" points="229.6377,145.7266,239.6377,149.7266,229.6377,153.7266,233.6377,149.7266" style="stroke:#181818;stroke-width:1;"/><line style="stroke:#181818;stroke-width:1;" x1="66.6079" x2="235.6377" y1="149.7266" y2="149.7266"/><text fill="#000000" font-family="sans-serif" font-size="13" lengthAdjust="spacing" textLength="151.0298" x="73.6079" y="144.6606">Inscribirse en actividad</text></g><g class="message" data-participant-1="FE" data-participant-2="BE"><polygon fill="#181818" points="492.6523,174.8594,502.6523,178.8594,492.6523,182.8594,496.6523,178.8594" style="stroke:#181818;stroke-width:1;"/><line style="stroke:#181818;stroke-width:1;" x1="241.6377" x2="498.6523" y1="178.8594" y2="178.8594"/><text fill="#000000" font-family="sans-serif" font-size="13" lengthAdjust="spacing" textLength="239.0146" x="248.6377" y="173.7935">POST /actividades/{id}/inscripciones</text></g><g class="message" data-participant-1="BE" data-participant-2="DB"><polygon fill="#181818" points="740.0645,203.9922,750.0645,207.9922,740.0645,211.9922,744.0645,207.9922" style="stroke:#181818;stroke-width:1;"/><line style="stroke:#181818;stroke-width:1;" x1="504.6523" x2="746.0645" y1="207.9922" y2="207.9922"/><text fill="#000000" font-family="sans-serif" font-size="13" lengthAdjust="spacing" textLength="144.333" x="511.6523" y="202.9263">Validar vecino inscrito</text></g><g class="message" data-participant-1="DB" data-participant-2="BE"><polygon fill="#181818" points="515.6523,233.125,505.6523,237.125,515.6523,241.125,511.6523,237.125" style="stroke:#181818;stroke-width:1;"/><line style="stroke:#181818;stroke-width:1;stroke-dasharray:2.0,2.0;" x1="509.6523" x2="751.0645" y1="237.125" y2="237.125"/><text fill="#000000" font-family="sans-serif" font-size="13" lengthAdjust="spacing" textLength="100.9912" x="521.6523" y="232.0591">OK / No inscrito</text></g><path d="M10,252.125 L74.4429,252.125 L74.4429,259.2578 L64.4429,269.2578 L10,269.2578 L10,252.125" fill="#EEEEEE" style="stroke:#000000;stroke-width:1.5;"/><rect fill="none" height="560.8047" style="stroke:#000000;stroke-width:1.5;" width="1003.418" x="10" y="252.125"/><text fill="#000000" font-family="sans-serif" font-size="13" font-weight="bold" lengthAdjust="spacing" textLength="19.4429" x="25" y="265.1919">alt</text><text fill="#000000" font-family="sans-serif" font-size="11" font-weight="bold" lengthAdjust="spacing" textLength="93.1025" x="89.4429" y="264.3354">[Vecino v&#225;lido]</text><g class="message" data-participant-1="BE" data-participant-2="DB"><polygon fill="#181818" points="740.0645,286.3906,750.0645,290.3906,740.0645,294.3906,744.0645,290.3906" style="stroke:#181818;stroke-width:1;"/><line style="stroke:#181818;stroke-width:1;" x1="504.6523" x2="746.0645" y1="290.3906" y2="290.3906"/><text fill="#000000" font-family="sans-serif" font-size="13" lengthAdjust="spacing" textLength="104.7998" x="511.6523" y="285.3247">Consultar cupos</text></g><path d="M20,305.3906 L84.4429,305.3906 L84.4429,312.5234 L74.4429,322.5234 L20,322.5234 L20,305.3906" fill="#EEEEEE" style="stroke:#000000;stroke-width:1.5;"/><rect fill="none" height="398.3359" style="stroke:#000000;stroke-width:1.5;" width="983.418" x="20" y="305.3906"/><text fill="#000000" font-family="sans-serif" font-size="13" font-weight="bold" lengthAdjust="spacing" textLength="19.4429" x="35" y="318.4575">alt</text><text fill="#000000" font-family="sans-serif" font-size="11" font-weight="bold" lengthAdjust="spacing" textLength="109.5488" x="99.4429" y="317.6011">[Cupo disponible]</text><g class="message" data-participant-1="BE" data-participant-2="DB"><polygon fill="#181818" points="740.0645,339.6563,750.0645,343.6563,740.0645,347.6563,744.0645,343.6563" style="stroke:#181818;stroke-width:1;"/><line style="stroke:#181818;stroke-width:1;" x1="504.6523" x2="746.0645" y1="343.6563" y2="343.6563"/><text fill="#000000" font-family="sans-serif" font-size="13" lengthAdjust="spacing" textLength="223.4121" x="511.6523" y="338.5903">Registrar inscripci&#243;n (Confirmada)</text></g><g class="message" data-participant-1="BE" data-participant-2="NOTI"><polygon fill="#181818" points="887.541,368.7891,897.541,372.7891,887.541,376.7891,891.541,372.7891" style="stroke:#181818;stroke-width:1;"/><line style="stroke:#181818;stroke-width:1;" x1="504.6523" x2="893.541" y1="372.7891" y2="372.7891"/><text fill="#000000" font-family="sans-serif" font-size="13" lengthAdjust="spacing" textLength="129.6572" x="511.6523" y="367.7231">Enviar confirmaci&#243;n</text></g><g class="message" data-participant-1="NOTI" data-participant-2="Vecino"><polygon fill="#181818" points="77.6079,397.9219,67.6079,401.9219,77.6079,405.9219,73.6079,401.9219" style="stroke:#181818;stroke-width:1;"/><line style="stroke:#181818;stroke-width:1;stroke-dasharray:2.0,2.0;" x1="71.6079" x2="898.541" y1="401.9219" y2="401.9219"/><text fill="#000000" font-family="sans-serif" font-size="13" lengthAdjust="spacing" textLength="86.3853" x="83.6079" y="396.856">Confirmaci&#243;n</text></g><g class="message" data-participant-1="BE" data-participant-2="FE"><polygon fill="#181818" points="252.6377,427.0547,242.6377,431.0547,252.6377,435.0547,248.6377,431.0547" style="stroke:#181818;stroke-width:1;"/><line style="stroke:#181818;stroke-width:1;stroke-dasharray:2.0,2.0;" x1="246.6377" x2="503.6523" y1="431.0547" y2="431.0547"/><text fill="#000000" font-family="sans-serif" font-size="13" lengthAdjust="spacing" textLength="80.6787" x="258.6377" y="425.9888">201 Created</text></g><line style="stroke:#000000;stroke-width:1;stroke-dasharray:2.0,2.0;" x1="20" x2="1003.418" y1="440.0547" y2="440.0547"/><text fill="#000000" font-family="sans-serif" font-size="11" font-weight="bold" lengthAdjust="spacing" textLength="63.1909" x="25" y="450.2651">[Sin cupo]</text><path d="M30,460.8594 L94.4429,460.8594 L94.4429,467.9922 L84.4429,477.9922 L30,477.9922 L30,460.8594" fill="#EEEEEE" style="stroke:#000000;stroke-width:1.5;"/><rect fill="none" height="235.8672" style="stroke:#000000;stroke-width:1.5;" width="963.418" x="30" y="460.8594"/><text fill="#000000" font-family="sans-serif" font-size="13" font-weight="bold" lengthAdjust="spacing" textLength="19.4429" x="45" y="473.9263">alt</text><text fill="#000000" font-family="sans-serif" font-size="11" font-weight="bold" lengthAdjust="spacing" textLength="186.5059" x="109.4429" y="473.0698">[Lista de invitados habilitada]</text><g class="message" data-participant-1="BE" data-participant-2="DB"><polygon fill="#181818" points="740.0645,495.125,750.0645,499.125,740.0645,503.125,744.0645,499.125" style="stroke:#181818;stroke-width:1;"/><line style="stroke:#181818;stroke-width:1;" x1="504.6523" x2="746.0645" y1="499.125" y2="499.125"/><text fill="#000000" font-family="sans-serif" font-size="13" lengthAdjust="spacing" textLength="194.6953" x="511.6523" y="494.0591">Registrar en lista de invitados</text></g><g class="message" data-participant-1="BE" data-participant-2="NOTI"><polygon fill="#181818" points="887.541,524.2578,897.541,528.2578,887.541,532.2578,891.541,528.2578" style="stroke:#181818;stroke-width:1;"/><line style="stroke:#181818;stroke-width:1;" x1="504.6523" x2="893.541" y1="528.2578" y2="528.2578"/><text fill="#000000" font-family="sans-serif" font-size="13" lengthAdjust="spacing" textLength="149.8301" x="511.6523" y="523.1919">Aviso lista de invitados</text></g><g class="message" data-participant-1="NOTI" data-participant-2="Vecino"><polygon fill="#181818" points="77.6079,553.3906,67.6079,557.3906,77.6079,561.3906,73.6079,557.3906" style="stroke:#181818;stroke-width:1;"/><line style="stroke:#181818;stroke-width:1;stroke-dasharray:2.0,2.0;" x1="71.6079" x2="898.541" y1="557.3906" y2="557.3906"/><text fill="#000000" font-family="sans-serif" font-size="13" lengthAdjust="spacing" textLength="131.3584" x="83.6079" y="552.3247">En lista de invitados</text></g><g class="message" data-participant-1="BE" data-participant-2="FE"><polygon fill="#181818" points="252.6377,582.5234,242.6377,586.5234,252.6377,590.5234,248.6377,586.5234" style="stroke:#181818;stroke-width:1;"/><line style="stroke:#181818;stroke-width:1;stroke-dasharray:2.0,2.0;" x1="246.6377" x2="503.6523" y1="586.5234" y2="586.5234"/><text fill="#000000" font-family="sans-serif" font-size="13" lengthAdjust="spacing" textLength="89.7305" x="258.6377" y="581.4575">202 Accepted</text></g><line style="stroke:#000000;stroke-width:1;stroke-dasharray:2.0,2.0;" x1="30" x2="993.418" y1="595.5234" y2="595.5234"/><text fill="#000000" font-family="sans-serif" font-size="11" font-weight="bold" lengthAdjust="spacing" textLength="140.3735" x="35" y="605.7339">[Sin lista de invitados]</text><g class="message" data-participant-1="BE" data-participant-2="NOTI"><polygon fill="#181818" points="887.541,626.4609,897.541,630.4609,887.541,634.4609,891.541,630.4609" style="stroke:#181818;stroke-width:1;"/><line style="stroke:#181818;stroke-width:1;" x1="504.6523" x2="893.541" y1="630.4609" y2="630.4609"/><text fill="#000000" font-family="sans-serif" font-size="13" lengthAdjust="spacing" textLength="93.4058" x="511.6523" y="625.395">Aviso sin cupo</text></g><g class="message" data-participant-1="NOTI" data-participant-2="Vecino"><polygon fill="#181818" points="77.6079,655.5938,67.6079,659.5938,77.6079,663.5938,73.6079,659.5938" style="stroke:#181818;stroke-width:1;"/><line style="stroke:#181818;stroke-width:1;stroke-dasharray:2.0,2.0;" x1="71.6079" x2="898.541" y1="659.5938" y2="659.5938"/><text fill="#000000" font-family="sans-serif" font-size="13" lengthAdjust="spacing" textLength="88.207" x="83.6079" y="654.5278">No hay cupos</text></g><g class="message" data-participant-1="BE" data-participant-2="FE"><polygon fill="#181818" points="252.6377,684.7266,242.6377,688.7266,252.6377,692.7266,248.6377,688.7266" style="stroke:#181818;stroke-width:1;"/><line style="stroke:#181818;stroke-width:1;stroke-dasharray:2.0,2.0;" x1="246.6377" x2="503.6523" y1="688.7266" y2="688.7266"/><text fill="#000000" font-family="sans-serif" font-size="13" lengthAdjust="spacing" textLength="78.2603" x="258.6377" y="683.6606">409 Conflict</text></g><line style="stroke:#000000;stroke-width:1;stroke-dasharray:2.0,2.0;" x1="10" x2="1013.418" y1="711.7266" y2="711.7266"/><text fill="#000000" font-family="sans-serif" font-size="11" font-weight="bold" lengthAdjust="spacing" textLength="112.3203" x="15" y="721.937">[Vecino no v&#225;lido]</text><g class="message" data-participant-1="BE" data-participant-2="NOTI"><polygon fill="#181818" points="887.541,742.6641,897.541,746.6641,887.541,750.6641,891.541,746.6641" style="stroke:#181818;stroke-width:1;"/><line style="stroke:#181818;stroke-width:1;" x1="504.6523" x2="893.541" y1="746.6641" y2="746.6641"/><text fill="#000000" font-family="sans-serif" font-size="13" lengthAdjust="spacing" textLength="178.6865" x="511.6523" y="741.5981">Debe inscribirse en la Junta</text></g><g class="message" data-participant-1="NOTI" data-participant-2="Vecino"><polygon fill="#181818" points="77.6079,771.7969,67.6079,775.7969,77.6079,779.7969,73.6079,775.7969" style="stroke:#181818;stroke-width:1;"/><line style="stroke:#181818;stroke-width:1;stroke-dasharray:2.0,2.0;" x1="71.6079" x2="898.541" y1="775.7969" y2="775.7969"/><text fill="#000000" font-family="sans-serif" font-size="13" lengthAdjust="spacing" textLength="108.3291" x="83.6079" y="770.731">No est&#225;s inscrito</text></g><g class="message" data-participant-1="BE" data-participant-2="FE"><polygon fill="#181818" points="252.6377,800.9297,242.6377,804.9297,252.6377,808.9297,248.6377,804.9297" style="stroke:#181818;stroke-width:1;"/><line style="stroke:#181818;stroke-width:1;stroke-dasharray:2.0,2.0;" x1="246.6377" x2="503.6523" y1="804.9297" y2="804.9297"/><text fill="#000000" font-family="sans-serif" font-size="13" lengthAdjust="spacing" textLength="54.0059" x="258.6377" y="799.8638">400/401</text></g><!--SRC=[bLFBRjim4BppAnOv9OT0Jf1BUoXWsGxWFkAW2PBpYjmaYxAa8582Yg8Vas_89_Z7kgJao7OS5BqGX7PcTcQvGXrz0tUasNbLOnDPSuqkmj5burqaP-3udgfYMjSdHu01BXUxi1BrZuoQNYzxHBbG1YDM62YLvJG4Sum-vFAyt1NujdunhVLmvIC_i4RDtb4FlLhTBfMA72t1qWNTSArv_U80OQeZTspGK93MRVIFvAX1WoTAzMdWz9EOXOy3i-96d91mDqmbLS6K2NEzkhc50aVHuZURFmLlcYPBgipuUIduExI2Qw3hM_Muw9KKJpUQgozGIAgngD36OTJGhPz5mIk0BTMPTw6rKNHrM_iWnSIOoHqCXzexhYp9rntITtha41iXyVQ8ZaNiWPkVUIGZ9OrKI0lNSMepO38bet8zHHXyPbDxcAIq6Uxvv0nc3M4a8pMoCkCRTjb_ngO0NyKVfYLWwHhH-01FMB5DTyoeTmB9Qzatt1t246VQSV3lOz-6Mln3UOntBgkcgUxpRINy7sDXUoA7xCYMFE6lrrVVTt4n-P2VmRAElGkNfordzZFe75YhmSQSAXhMu_K_i0YVMnVJ0nmqH26kdyEulVkM9iN5v4o9Xxy0]--></g></svg>